<?xml version="1.0" encoding="UTF-8"?>
<!DOCTYPE svg PUBLIC "-//W3C//DTD SVG 1.1//EN" "http://www.w3.org/Graphics/SVG/1.1/DTD/svg11.dtd">
<svg xmlns="http://www.w3.org/2000/svg" version="1.1" width="50px" height="50px" style="shape-rendering:geometricPrecision; text-rendering:geometricPrecision; image-rendering:optimizeQuality; fill-rule:evenodd; clip-rule:evenodd" xmlns:xlink="http://www.w3.org/1999/xlink">
<g><path style="opacity:0.63" fill="#828d90" d="M 0.5,0.5 C 3.24688,0.186646 5.91355,0.519979 8.5,1.5C 6.60395,2.46557 4.60395,2.7989 2.5,2.5C 2.7989,4.60395 2.46557,6.60395 1.5,8.5C 0.519979,5.91355 0.186646,3.24688 0.5,0.5 Z"/></g>
<g><path style="opacity:0.542" fill="#7f8d97" d="M 17.5,0.5 C 22.2137,0.173375 26.8804,0.506709 31.5,1.5C 29.1667,1.83333 26.8333,2.16667 24.5,2.5C 21.7305,2.47144 19.3972,1.80478 17.5,0.5 Z"/></g>
<g><path style="opacity:0.559" fill="#828c91" d="M 40.5,0.5 C 43.1667,0.5 45.8333,0.5 48.5,0.5C 48.8134,3.24688 48.48,5.91355 47.5,8.5C 46.5344,6.60395 46.2011,4.60395 46.5,2.5C 43.9179,2.97461 41.9179,2.30794 40.5,0.5 Z"/></g>
<g><path style="opacity:0.915" fill="#1677ef" d="M 12.5,6.5 C 18.1764,6.33391 23.8431,6.50058 29.5,7C 37.1917,9.35821 40.025,14.5249 38,22.5C 37.2078,24.5873 36.0412,26.4207 34.5,28C 29.7163,30.0324 24.7163,30.8657 19.5,30.5C 19.5,35.1667 19.5,39.8333 19.5,44.5C 17.1667,44.5 14.8333,44.5 12.5,44.5C 12.5,31.8333 12.5,19.1667 12.5,6.5 Z M 19.5,13.5 C 22.5184,13.3354 25.5184,13.502 28.5,14C 32.457,16.9438 32.457,19.9438 28.5,23C 25.5184,23.498 22.5184,23.6646 19.5,23.5C 19.5,20.1667 19.5,16.8333 19.5,13.5 Z"/></g>
<g><path style="opacity:0.787" fill="#808d98" d="M 0.5,17.5 C 1.11742,17.6107 1.61742,17.944 2,18.5C 2.82752,22.8713 2.66085,27.2047 1.5,31.5C 0.506709,26.8804 0.173375,22.2137 0.5,17.5 Z"/></g>
<g><path style="opacity:0.535" fill="#808b99" d="M 47.5,17.5 C 48.8124,22.0152 48.8124,26.6819 47.5,31.5C 46.2254,26.7836 46.2254,22.117 47.5,17.5 Z"/></g>
<g><path style="opacity:0.819" fill="#7d8da1" d="M 8.5,49.5 C 5.83333,49.5 3.16667,49.5 0.5,49.5C 0.182589,46.4281 0.515923,43.4281 1.5,40.5C 2.46557,42.396 2.7989,44.396 2.5,46.5C 4.19919,46.3398 5.86586,46.5065 7.5,47C 8.25244,47.6708 8.58577,48.5041 8.5,49.5 Z"/></g>
<g><path style="opacity:0.646" fill="#7d8ca1" d="M 48.5,49.5 C 45.8333,49.5 43.1667,49.5 40.5,49.5C 40.4142,48.5041 40.7476,47.6708 41.5,47C 43.1341,46.5065 44.8008,46.3398 46.5,46.5C 46.2011,44.396 46.5344,42.396 47.5,40.5C 48.4841,43.4281 48.8174,46.4281 48.5,49.5 Z"/></g>
<g><path style="opacity:0.157" fill="#7a8daa" d="M 30.5,49.5 C 26.5,49.5 22.5,49.5 18.5,49.5C 17.4019,48.603 17.4019,47.7697 18.5,47C 22.5,46.3333 26.5,46.3333 30.5,47C 31.5981,47.7697 31.5981,48.603 30.5,49.5 Z"/></g>
</svg>
