<?xml version="1.0" encoding="UTF-8"?>
<svg version="1.1" xmlns="http://www.w3.org/2000/svg" width="300" height="35">
<path d="M0 0 C1.65 0 3.3 0 5 0 C5 5.94 5 11.88 5 18 C7.97 17.67 10.94 17.34 14 17 C14.34933594 15.85660156 14.69867188 14.71320312 15.05859375 13.53515625 C15.51806463 12.04422012 15.97770901 10.55333745 16.4375 9.0625 C16.66759766 8.30775391 16.89769531 7.55300781 17.13476562 6.77539062 C18.88671875 1.11328125 18.88671875 1.11328125 20 0 C21.66617115 -0.04063832 23.33388095 -0.042721 25 0 C25.79441072 1.87383903 26.58539974 3.74912886 27.375 5.625 C27.81585938 6.66914063 28.25671875 7.71328125 28.7109375 8.7890625 C30.55704575 13.38755032 32 17.00663539 32 22 C30.68 22 29.36 22 28 22 C27.34 20.02 26.68 18.04 26 16 C23.69 16 21.38 16 19 16 C18.67 17.98 18.34 19.96 18 22 C12.06 22 6.12 22 0 22 C0 14.74 0 7.48 0 0 Z M22 8 C21.67 9.32 21.34 10.64 21 12 C21.99 12 22.98 12 24 12 C23.67 10.68 23.34 9.36 23 8 C22.67 8 22.34 8 22 8 Z " fill="#1375F0" transform="translate(40,6)"/>
<path d="M0 0 C2.64453125 0.375 2.64453125 0.375 4.4453125 2.5625 C4.94417969 3.490625 5.44304687 4.41875 5.95703125 5.375 C6.46878906 6.303125 6.98054687 7.23125 7.5078125 8.1875 C7.88292969 8.909375 8.25804687 9.63125 8.64453125 10.375 C8.97453125 7.075 9.30453125 3.775 9.64453125 0.375 C11.29453125 0.375 12.94453125 0.375 14.64453125 0.375 C14.64453125 7.635 14.64453125 14.895 14.64453125 22.375 C12.99453125 22.375 11.34453125 22.375 9.64453125 22.375 C7.87890625 20.51171875 7.87890625 20.51171875 6.39453125 18.0625 C5.894375 17.26199219 5.39421875 16.46148438 4.87890625 15.63671875 C3.64453125 13.375 3.64453125 13.375 2.64453125 10.375 C2.31453125 14.335 1.98453125 18.295 1.64453125 22.375 C-0.00546875 22.045 -1.65546875 21.715 -3.35546875 21.375 C-3.38435021 18.06251813 -3.40222674 14.75006833 -3.41796875 11.4375 C-3.42634766 10.49197266 -3.43472656 9.54644531 -3.44335938 8.57226562 C-3.44658203 7.67314453 -3.44980469 6.77402344 -3.453125 5.84765625 C-3.45836182 5.01500244 -3.46359863 4.18234863 -3.46899414 3.32446289 C-3.30091248 0.43815733 -2.85832848 0.45505727 0 0 Z " fill="#1373EB" transform="translate(205.35546875,5.625)"/>
<path d="M0 0 C3.09799981 2.19126816 3.80352112 3.41056336 5 7 C5.50495132 13.16040612 5.01042869 16.01734618 1 21 C-0.64156736 22.64156736 -2.49215801 22.28815992 -4.75 22.375 C-8.3414394 22.29782007 -9.89170142 22.05848123 -13.125 20.3125 C-16.00888877 15.21762984 -16.23831676 9.70354133 -15 4 C-10.53983993 -0.75802665 -6.19132945 -1.056291 0 0 Z M-9.8125 5.625 C-11.34040738 8.68081477 -11.42256988 10.61944093 -11 14 C-9.96057155 16.44245747 -9.96057155 16.44245747 -8 18 C-5.5 18.66666667 -5.5 18.66666667 -3 18 C-0.49092692 15.75048621 -0.04343691 14.34749528 0.375 11 C-0.04343691 7.65250472 -0.49092692 6.24951379 -3 4 C-6.1748727 3.36502546 -7.38106456 3.44509237 -9.8125 5.625 Z " fill="#1377F0" transform="translate(176,6)"/>
<path d="M0 0 C3.63 0 7.26 0 11 0 C14.33169751 3.33169751 14.81657498 4.41437441 15 9 C13.5625 11.875 13.5625 11.875 12 14 C12.495 14.5775 12.99 15.155 13.5 15.75 C15 18 15 18 15 22 C12.75 21.9375 12.75 21.9375 10 21 C8.39140567 18.78068511 7.26633732 16.44534103 6 14 C5.34 13.67 4.68 13.34 4 13 C4 15.97 4 18.94 4 22 C2.68 22 1.36 22 0 22 C0 14.74 0 7.48 0 0 Z M4 4 C4 5.65 4 7.3 4 9 C5.65 9 7.3 9 9 9 C9.33 8.01 9.66 7.02 10 6 C9.67 5.34 9.34 4.68 9 4 C7.35 4 5.7 4 4 4 Z " fill="#1477F0" transform="translate(110,6)"/>
<path d="M0 0 C11 0 11 0 13.75 2.125 C15.28384969 5.65285428 15.11070535 7.35053958 14 11 C13.01 12.485 13.01 12.485 12 14 C12.495 14.5775 12.99 15.155 13.5 15.75 C15 18 15 18 15 22 C12.75 21.875 12.75 21.875 10 21 C6 15.91891892 6 15.91891892 6 13 C5.34 13 4.68 13 4 13 C4 15.97 4 18.94 4 22 C2.68 22 1.36 22 0 22 C0 14.74 0 7.48 0 0 Z M4 4 C4 5.65 4 7.3 4 9 C5.65 9 7.3 9 9 9 C9.33 8.01 9.66 7.02 10 6 C9.67 5.34 9.34 4.68 9 4 C7.35 4 5.7 4 4 4 Z " fill="#1477EF" transform="translate(263,6)"/>
<path d="M0 0 C0.66 0.66 1.32 1.32 2 2 C1.67 3.32 1.34 4.64 1 6 C-2.3 5.67 -5.6 5.34 -9 5 C-9 8.96 -9 12.92 -9 17 C-6.69 17.33 -4.38 17.66 -2 18 C-2 15.36 -2 12.72 -2 10 C-0.35 10 1.3 10 3 10 C3.05395478 11.62463842 3.09277195 13.24978541 3.125 14.875 C3.14820313 15.77992187 3.17140625 16.68484375 3.1953125 17.6171875 C3 20 3 20 1 22 C-4.14816691 22.78756177 -8.58898237 22.77467635 -13.1875 20.25 C-15.97665014 15.24876526 -15.92602126 10.58699495 -15 5 C-11.57306195 -0.94002595 -6.31001343 -1.06097571 0 0 Z " fill="#1374F0" transform="translate(197,6)"/>
<path d="M0 0 C4.62 0 9.24 0 14 0 C14 1.32 14 2.64 14 4 C11.03 4 8.06 4 5 4 C5 5.65 5 7.3 5 9 C7.64 9 10.28 9 13 9 C13 10.32 13 11.64 13 13 C10.36 13 7.72 13 5 13 C5 14.65 5 16.3 5 18 C8.3 18 11.6 18 15 18 C15 19.32 15 20.64 15 22 C12.68756208 22.02685412 10.3750373 22.04632841 8.0625 22.0625 C6.77472656 22.07410156 5.48695313 22.08570312 4.16015625 22.09765625 C1 22 1 22 0 21 C-0.08685603 19.43827255 -0.10702219 17.87270656 -0.09765625 16.30859375 C-0.09443359 15.36435547 -0.09121094 14.42011719 -0.08789062 13.44726562 C-0.07951172 12.45404297 -0.07113281 11.46082031 -0.0625 10.4375 C-0.05798828 9.44041016 -0.05347656 8.44332031 -0.04882812 7.41601562 C-0.03700023 4.94398513 -0.01906415 2.47198528 0 0 Z " fill="#1378EC" transform="translate(246,6)"/>
<path d="M0 0 C4.62 0 9.24 0 14 0 C14 1.32 14 2.64 14 4 C11.03 4 8.06 4 5 4 C5 5.65 5 7.3 5 9 C7.64 9 10.28 9 13 9 C13 10.32 13 11.64 13 13 C10.36 13 7.72 13 5 13 C5 14.65 5 16.3 5 18 C7.97 18 10.94 18 14 18 C14 19.32 14 20.64 14 22 C9.38 22 4.76 22 0 22 C0 14.74 0 7.48 0 0 Z " fill="#1676F0" transform="translate(127,6)"/>
<path d="M0 0 C4.95 0 9.9 0 15 0 C14.04162319 4.79188405 12.51476179 7.81974728 9.9375 11.8125 C9.37192383 12.7087207 9.37192383 12.7087207 8.79492188 13.62304688 C7.87010434 15.08636577 6.93597935 16.54379523 6 18 C8.97 18 11.94 18 15 18 C15 19.32 15 20.64 15 22 C10.05 22 5.1 22 0 22 C-0.33 21.01 -0.66 20.02 -1 19 C0.2590281 16.57520515 1.5630362 14.31327615 3 12 C3.75519697 10.69048337 4.50546681 9.37810883 5.25 8.0625 C5.8275 7.051875 6.405 6.04125 7 5 C4.69 4.67 2.38 4.34 0 4 C0 2.68 0 1.36 0 0 Z " fill="#1376EF" transform="translate(230,6)"/>
<path d="M0 0 C11 0 11 0 15 3 C15.43060657 6.44485259 15.63335287 8.84506242 13.9375 11.9375 C10.98831309 13.55479605 8.29132441 13.18630138 5 13 C5 15.97 5 18.94 5 22 C3.35 22 1.7 22 0 22 C0 14.74 0 7.48 0 0 Z M5 4 C5 5.65 5 7.3 5 9 C6.65 8.67 8.3 8.34 10 8 C9.67 6.68 9.34 5.36 9 4 C7.68 4 6.36 4 5 4 Z " fill="#1477EF" transform="translate(23,6)"/>
<path d="M0 0 C4.29 0 8.58 0 13 0 C13 1.32 13 2.64 13 4 C10.03 4 7.06 4 4 4 C4 5.65 4 7.3 4 9 C6.97 9 9.94 9 13 9 C12.67 10.32 12.34 11.64 12 13 C9.36 13 6.72 13 4 13 C4 14.65 4 16.3 4 18 C7.3 18 10.6 18 14 18 C14 19.32 14 20.64 14 22 C9.38 22 4.76 22 0 22 C0 14.74 0 7.48 0 0 Z " fill="#1578F0" transform="translate(87,6)"/>
<path d="M0 0 C2.3046875 0.40625 2.3046875 0.40625 5.3046875 2.40625 C4.6446875 3.72625 3.9846875 5.04625 3.3046875 6.40625 C0.6646875 6.07625 -1.9753125 5.74625 -4.6953125 5.40625 C-7.00863736 8.87623729 -7.03488813 10.33134248 -6.6953125 14.40625 C-5.7053125 15.89125 -5.7053125 15.89125 -4.6953125 17.40625 C-2.71784128 17.76922936 -2.71784128 17.76922936 -0.5703125 17.59375 C0.7084375 17.531875 1.9871875 17.47 3.3046875 17.40625 C3.8671875 19.34375 3.8671875 19.34375 4.3046875 21.40625 C2.58257412 23.12836338 0.4051546 22.74005292 -1.9453125 22.84375 C-6.19618908 22.78294422 -7.36063607 22.65561675 -10.8828125 20.03125 C-13.61140512 15.8134255 -13.63034868 11.22168633 -12.6953125 6.40625 C-10.29025664 0.32145869 -5.940049 -0.21665832 0 0 Z " fill="#1374F1" transform="translate(154.6953125,5.59375)"/>
<path d="M0 0 C5.61 0 11.22 0 17 0 C17 1.32 17 2.64 17 4 C15.02 4 13.04 4 11 4 C11 9.94 11 15.88 11 22 C9.35 22 7.7 22 6 22 C6 16.06 6 10.12 6 4 C4.02 4 2.04 4 0 4 C0 2.68 0 1.36 0 0 Z " fill="#1277EE" transform="translate(69,6)"/>
<path d="M0 0 C1.32 0 2.64 0 4 0 C4 7.26 4 14.52 4 22 C2.68 22 1.36 22 0 22 C0 14.74 0 7.48 0 0 Z " fill="#1577EF" transform="translate(223,6)"/>
</svg>
